<svg width="512" height="512" viewBox="0 0 512 512" fill="none" xmlns="http://www.w3.org/2000/svg">
  <defs>
    <linearGradient id="bg" x1="96" y1="64" x2="416" y2="448" gradientUnits="userSpaceOnUse">
      <stop stop-color="#0B0D0F"/>
      <stop offset="1" stop-color="#121619"/>
    </linearGradient>
    <linearGradient id="accent" x1="120" y1="128" x2="392" y2="384" gradientUnits="userSpaceOnUse">
      <stop stop-color="#10B981"/>
      <stop offset="1" stop-color="#34D399"/>
    </linearGradient>
    <linearGradient id="warm" x1="160" y1="176" x2="352" y2="352" gradientUnits="userSpaceOnUse">
      <stop stop-color="#F59E0B"/>
      <stop offset="1" stop-color="#FBBF24"/>
    </linearGradient>
  </defs>
  <rect x="36" y="36" width="440" height="440" rx="120" fill="url(#bg)"/>
  <circle cx="256" cy="256" r="162" fill="none" stroke="url(#accent)" stroke-width="20" opacity="0.35"/>
  <circle cx="256" cy="256" r="112" fill="none" stroke="rgba(255,255,255,0.08)" stroke-width="12"/>
  <path d="M156 314C156 283 176 255 207 244L237 233C246 229 258 229 267 233L306 250C323 257 336 271 343 288L351 308C354 315 351 322 344 325C338 328 330 325 326 319L319 308H193L185 319C181 325 173 328 167 325C160 322 156 316 156 314Z" fill="url(#accent)"/>
  <path d="M188 250L217 237C229 231 243 228 256 228C270 228 284 231 296 237L323 250L308 276H202L188 250Z" fill="#0B0D0F"/>
  <path d="M213 214C225 194 241 184 256 184C272 184 288 194 300 214L309 228L266 247C260 250 252 250 246 247L203 228L213 214Z" fill="#E5E7EB" fill-opacity="0.09"/>
  <path d="M193 302H319" stroke="rgba(255,255,255,0.16)" stroke-width="12" stroke-linecap="round"/>
  <circle cx="194" cy="314" r="30" fill="#0B0D0F" stroke="url(#warm)" stroke-width="14"/>
  <circle cx="318" cy="314" r="30" fill="#0B0D0F" stroke="url(#warm)" stroke-width="14"/>
  <circle cx="194" cy="314" r="10" fill="#F9FAFB" fill-opacity="0.16"/>
  <circle cx="318" cy="314" r="10" fill="#F9FAFB" fill-opacity="0.16"/>
  <path d="M236 170L258 150L280 170" stroke="url(#warm)" stroke-width="16" stroke-linecap="round" stroke-linejoin="round"/>
  <path d="M236 170H280" stroke="url(#warm)" stroke-width="16" stroke-linecap="round"/>
  <path d="M256 146V188" stroke="url(#warm)" stroke-width="16" stroke-linecap="round"/>
</svg>